# xmcd
#
# Track frame offsets:
#	150
#	12417
#	28422
#	35757
#	52047
#	68397
#	79737
#	89927
#	101730
#	112177
#	124850
#	136912
#	151727
#	159160
#	171392
#	184032
#
# Disc length: 2644 seconds
#
# Revision: 2
# Processed by: cddbd v1.5.2PL0 Copyright (c) Steve Scherf et al.
# Submitted via: audiograbber 1.83.01
#
DISCID=dc0a5210
DTITLE=Various Artist - Hymns of God  Vol. 1
DYEAR=1900
DGENRE=
TTITLE0=Jimmy Rogers - Just a Closer Walk with Thee
TTITLE1=Rosemary Clooney - Count Your Blessings
TTITLE2=Louis Armstrong - When the Saints Go Marching In
TTITLE3=Ray Stevens - Everything Is Beautiful
TTITLE4=B. J. Thomas - Amazing Grace
TTITLE5=Pat Boone - He
TTITLE6=Frankie Lane - I Believe
TTITLE7=Ray Stevens - Yes, Jesus Loves Me
TTITLE8=Ferlin Huskey - Wings of a Dove
TTITLE9=Oak Ridge Boys - In the Shelter of His Arms
TTITLE10=Roy Drusky - Mansion on the Hill
TTITLE11=Kenny Price - Peace in the Valley
TTITLE12=Jerry Lee Lewis - Old Time Religion
TTITLE13=Oak Ridge Boys - When I Lay My Burden Down
TTITLE14=Ray Price - I Saw the Light
TTITLE15=Sandy Posey - Put Your Hand in the Hand
EXTD=
EXTT0=Jimmy Rogers\n
EXTT1=Rosemary Clooney\n
EXTT2=Louis Armstrong\n
EXTT3=Ray Stevens\n
EXTT4=B.J. Thomas\n
EXTT5=Pat Boone\n
EXTT6=Frankie Lane\n
EXTT7=Ray Stevens\n
EXTT8=Ferlin Huskey\n
EXTT9=Oakridge Boys\n
EXTT10=Roy Drusky\n
EXTT11=Kenny Price\n
EXTT12=Jerry Lee Lewis\n
EXTT13=Oak Ridge Boys\n
EXTT14=Ray Price\n
EXTT15=Sandy Posey\n
PLAYORDER=
